<svg viewBox="0 0 100 100" xmlns="http://www.w3.org/2000/svg"><g transform="matrix(4.166666666666667,0,0,4.166666666666667,0,0)"><path d="M17.5,18.5h3.144a1.937,1.937,0,0,0,1.856-2v-3a2.006,2.006,0,0,0-2-2h-3" fill="none" stroke="#000000" stroke-linecap="round" stroke-linejoin="round"></path><path d="M19,22a1.5,1.5,0,0,1-1.5,1.5H5.5A1.5,1.5,0,0,1,4,22H4a1.505,1.505,0,0,1,1.5-1.5h12A1.505,1.505,0,0,1,19,22Z" fill="none" stroke="#000000" stroke-linecap="round" stroke-linejoin="round"></path><path d="M5.5 15.5L5.5 20.5" fill="none" stroke="#000000" stroke-linecap="round" stroke-linejoin="round"></path><path d="M17.5 20.5L17.501 9.5" fill="none" stroke="#000000" stroke-linecap="round" stroke-linejoin="round"></path><path d="M14.5 12L14.5 18.5" fill="none" stroke="#000000" stroke-linecap="round" stroke-linejoin="round"></path><path d="M11.5 15L11.5 18.5" fill="none" stroke="#000000" stroke-linecap="round" stroke-linejoin="round"></path><path d="M8.5 16L8.5 18.5" fill="none" stroke="#000000" stroke-linecap="round" stroke-linejoin="round"></path><path d="M17.5,3.5a5.577,5.577,0,0,0-9.934.081A4,4,0,1,0,5.5,11h0a3,3,0,0,0,6,0v-.5a1,1,0,0,1,1-1h5a3,3,0,0,0,0-6Z" fill="none" stroke="#000000" stroke-linecap="round" stroke-linejoin="round"></path></g></svg>