<svg viewBox="0 0 100 100" xmlns="http://www.w3.org/2000/svg"><g transform="matrix(4.166666666666667,0,0,4.166666666666667,0,0)"><path d="M4.500 13.985 A7.500 7.500 0 1 0 19.500 13.985 A7.500 7.500 0 1 0 4.500 13.985 Z" fill="none" stroke="#000000" stroke-linecap="round" stroke-linejoin="round"></path><path d="M12 6.494L12 0.994" fill="none" stroke="#000000" stroke-linecap="round" stroke-linejoin="round"></path><path d="M18.205 4.452L17.068 6.099" fill="none" stroke="#000000" stroke-linecap="round" stroke-linejoin="round"></path><path d="M23.491 12.435L21.5 12.628" fill="none" stroke="#000000" stroke-linecap="round" stroke-linejoin="round"></path><path d="M4.691 23.006L6 21.494" fill="none" stroke="#000000" stroke-linecap="round" stroke-linejoin="round"></path><path d="M19.31 23.006L18 21.494" fill="none" stroke="#000000" stroke-linecap="round" stroke-linejoin="round"></path><path d="M0.509 12.382L2.5 12.573" fill="none" stroke="#000000" stroke-linecap="round" stroke-linejoin="round"></path><path d="M6.028 4.231L7.111 5.913" fill="none" stroke="#000000" stroke-linecap="round" stroke-linejoin="round"></path><path d="M4.5 13.994L19.5 13.994" fill="none" stroke="#000000" stroke-linecap="round" stroke-linejoin="round"></path><path d="M5.65 9.994L18.35 9.994" fill="none" stroke="#000000" stroke-linecap="round" stroke-linejoin="round"></path><path d="M5.66 17.994L18.34 17.994" fill="none" stroke="#000000" stroke-linecap="round" stroke-linejoin="round"></path><path d="M9.000 13.994 A3 7.5 0 1 0 15.000 13.994 A3 7.5 0 1 0 9.000 13.994 Z" fill="none" stroke="#000000" stroke-linecap="round" stroke-linejoin="round"></path></g></svg>