
<svg viewBox="0 0 100 100" xmlns="http://www.w3.org/2000/svg"><g transform="matrix(4.166666666666667,0,0,4.166666666666667,0,0)"><path d="M6.5,8.5a1,1,0,0,0,1,1h1l2.573,2.573A.25.25,0,0,0,11.5,11.9V9.5h7a1,1,0,0,0,1-1v-7a1,1,0,0,0-1-1H7.5a1,1,0,0,0-1,1Z" fill="none" stroke="#000000" stroke-linecap="round" stroke-linejoin="round"></path><path d="M9.5 3.5L16.469 3.5" fill="none" stroke="#000000" stroke-linecap="round" stroke-linejoin="round"></path><path d="M9.5 6.5L16.469 6.5" fill="none" stroke="#000000" stroke-linecap="round" stroke-linejoin="round"></path><path d="M2.750 13.750 A2.250 2.250 0 1 0 7.250 13.750 A2.250 2.250 0 1 0 2.750 13.750 Z" fill="none" stroke="#000000" stroke-linecap="round" stroke-linejoin="round"></path><path d="M8.169,18.27A4.633,4.633,0,0,0,.5,20.5h6" fill="none" stroke="#000000" stroke-linecap="round" stroke-linejoin="round"></path><path d="M16.750 13.750 A2.250 2.250 0 1 0 21.250 13.750 A2.250 2.250 0 1 0 16.750 13.750 Z" fill="none" stroke="#000000" stroke-linecap="round" stroke-linejoin="round"></path><path d="M15.831,18.27A4.633,4.633,0,0,1,23.5,20.5h-6" fill="none" stroke="#000000" stroke-linecap="round" stroke-linejoin="round"></path><path d="M9.750 16.750 A2.250 2.250 0 1 0 14.250 16.750 A2.250 2.250 0 1 0 9.750 16.750 Z" fill="none" stroke="#000000" stroke-linecap="round" stroke-linejoin="round"></path><path d="M16.5,23.5a4.644,4.644,0,0,0-9,0Z" fill="none" stroke="#000000" stroke-linecap="round" stroke-linejoin="round"></path></g></svg>