<svg xmlns="http://www.w3.org/2000/svg" viewBox="0 0 100 100">
  
<g transform="matrix(4.166666666666667,0,0,4.166666666666667,0,0)"><g>
    <circle cx="10" cy="3" r="2.5" style="fill: none;stroke: #000000;stroke-linecap: round;stroke-linejoin: round"></circle>
    <circle cx="20.5" cy="14.5" r="1.5" style="fill: none;stroke: #000000;stroke-linecap: round;stroke-linejoin: round"></circle>
    <path d="M14.73,12.65c-2.12-3.07-2-2.93-2.11-3a6.26,6.26,0,0,0-6.38-1.9c-2.25.62-3.85,2.94-4.43,5l-.25.89a1.5,1.5,0,0,0,2.88.82l.26-.89c.12-.43.91-2.69,2.69-3L7.05,14,3.29,20.62a1.5,1.5,0,0,0,2.42,1.76l2.87-5.44.8,1a.49.49,0,0,1,.12.32V21.5a1.5,1.5,0,0,0,3,0V18.22A3.54,3.54,0,0,0,11.69,16l-1.64-2,.25-2.49s2,2.83,2,2.83a1.5,1.5,0,0,0,2.09.37A1.48,1.48,0,0,0,14.73,12.65Z" style="fill: none;stroke: #000000;stroke-linecap: round;stroke-linejoin: round"></path>
    <path d="M15.83,16c3.17,0,3.67,4,6.67,3.5" style="fill: none;stroke: #000000;stroke-linecap: round;stroke-linejoin: round"></path>
    <line x1="18.71" y1="17.4" x2="16.5" y2="23.5" style="fill: none;stroke: #000000;stroke-linecap: round;stroke-linejoin: round"></line>
    <path d="M17.64,20.35l1.26.6A2,2,0,0,1,20,22.74v.76" style="fill: none;stroke: #000000;stroke-linecap: round;stroke-linejoin: round"></path>
    <path d="M21.4,8.49a.84.84,0,0,0,.37-1.37L19.82,4.9c.7.77,1.72-.51.94-1.2L18.91,1.08a.5.5,0,0,0-.82,0L16.28,3.7c-.77.7.25,2,.95,1.2l-2,2.23a.84.84,0,0,0,.41,1.37Z" style="fill: none;stroke: #000000;stroke-linecap: round;stroke-linejoin: round"></path>
    <line x1="18.5" y1="8.5" x2="18.5" y2="11" style="fill: none;stroke: #000000;stroke-linecap: round;stroke-linejoin: round"></line>
  </g></g></svg>