<svg viewBox="0 0 100 100" xmlns="http://www.w3.org/2000/svg"><g transform="matrix(4.166666666666667,0,0,4.166666666666667,0,0)"><path d="M10.981 8.5L12.981 8.5" fill="none" stroke="#000000" stroke-linecap="round" stroke-linejoin="round"></path><path d="M10.981 10.5L12.981 10.5" fill="none" stroke="#000000" stroke-linecap="round" stroke-linejoin="round"></path><path d="M10.981 12.5L12.981 12.5" fill="none" stroke="#000000" stroke-linecap="round" stroke-linejoin="round"></path><path d="M3.981.5a3,3,0,0,1,3,3v14c0,3.314,3.5,6,7,6s7-2.686,7-6V14a1.5,1.5,0,0,1,.779-1.316.5.5,0,0,0,.113-.792L15.834,5.854a.5.5,0,0,0-.853.353V14.5a1.5,1.5,0,0,1-3,0v-8c0-3.314-4.687-6-8-6h-2" fill="none" stroke="#000000" stroke-linecap="round" stroke-linejoin="round"></path></g></svg>