<svg viewBox="0 0 100 100" xmlns="http://www.w3.org/2000/svg"><g transform="matrix(4.166666666666667,0,0,4.166666666666667,0,0)"><path d="M17.5,17.5v-2a1,1,0,0,1,1-1h0a1,1,0,0,1,1,1v2" fill="none" stroke="#000000" stroke-linecap="round" stroke-linejoin="round"></path><path d="M4.5,17.5v-2a1,1,0,0,1,1-1h0a1,1,0,0,1,1,1v2" fill="none" stroke="#000000" stroke-linecap="round" stroke-linejoin="round"></path><path d="M9.5,23.5v-2a2.516,2.516,0,0,1,2.5-2h0a2.516,2.516,0,0,1,2.5,2v2" fill="none" stroke="#000000" stroke-linecap="round" stroke-linejoin="round"></path><path d="M15.5,9.5a1.85,1.85,0,0,0,1-1.5c0-2.5-2.5-2.5-4.5-4.5-2,2-4.5,2-4.5,4.5a1.85,1.85,0,0,0,1,1.5" fill="none" stroke="#000000" stroke-linecap="round" stroke-linejoin="round"></path><path d="M4.5 1.5L4.5 0.5" fill="none" stroke="#000000" stroke-linecap="round" stroke-linejoin="round"></path><path d="M21.5,23.5V9.5a1,1,0,0,0-1-1h-1" fill="none" stroke="#000000" stroke-linecap="round" stroke-linejoin="round"></path><path d="M4.5,8.5h-1a1,1,0,0,0-1,1v14" fill="none" stroke="#000000" stroke-linecap="round" stroke-linejoin="round"></path><path d="M2.5 17.5L21.5 17.5" fill="none" stroke="#000000" stroke-linecap="round" stroke-linejoin="round"></path><path d="M0.5 23.499L23.5 23.499" fill="none" stroke="#000000" stroke-linecap="round" stroke-linejoin="round"></path><path d="M8.5 17.5L8.5 13.5" fill="none" stroke="#000000" stroke-linecap="round" stroke-linejoin="round"></path><path d="M15.5 17.5L15.5 13.5" fill="none" stroke="#000000" stroke-linecap="round" stroke-linejoin="round"></path><path d="M7.5 23.5L7.5 20.5" fill="none" stroke="#000000" stroke-linecap="round" stroke-linejoin="round"></path><path d="M19.5 1.5L19.5 0.5" fill="none" stroke="#000000" stroke-linecap="round" stroke-linejoin="round"></path><path d="M1.5 11.5L22.5 11.5" fill="none" stroke="#000000" stroke-linecap="round" stroke-linejoin="round"></path><path d="M16.5 23.5L16.5 20.5" fill="none" stroke="#000000" stroke-linecap="round" stroke-linejoin="round"></path><path d="M5.5,7A1.364,1.364,0,0,0,6,6c0-.828-1-1.5-1.5-2.5C4,4.5,3,5.172,3,6a1.364,1.364,0,0,0,.5,1V8.5" fill="none" stroke="#000000" stroke-linecap="round" stroke-linejoin="round"></path><path d="M18.5,7A1.364,1.364,0,0,1,18,6c0-.828,1-1.5,1.5-2.5C20,4.5,21,5.172,21,6a1.364,1.364,0,0,1-.5,1V8.5" fill="none" stroke="#000000" stroke-linecap="round" stroke-linejoin="round"></path><path d="M12,1a.25.25,0,1,1-.25.25A.25.25,0,0,1,12,1" fill="none" stroke="#000000" stroke-linecap="round" stroke-linejoin="round"></path><path d="M7.5 17.5L7.5 18.5" fill="none" stroke="#000000" stroke-linecap="round" stroke-linejoin="round"></path><path d="M16.5 17.5L16.5 18.5" fill="none" stroke="#000000" stroke-linecap="round" stroke-linejoin="round"></path><path d="M13.5,17.5V15a1.5,1.5,0,0,0-3,0v2.5" fill="none" stroke="#000000" stroke-linecap="round" stroke-linejoin="round"></path></g></svg>